<svg width="140" height="140" viewBox="0 0 140 140" fill="none" xmlns="http://www.w3.org/2000/svg">
<g filter="url(#filter0_d_23_221)">
<path d="M16 66C16 93.6142 38.3858 116 66 116C93.6142 116 116 93.6142 116 66C116 38.3858 93.6142 16 66 16C38.3858 16 16 38.3858 16 66Z" fill="#231E1B"/>
</g>
<path fill-rule="evenodd" clip-rule="evenodd" d="M65.9235 41.6001C52.1621 41.6001 41 52.7622 41 66.5236C41 77.5328 48.1865 86.86 57.9725 90.2239C59.1957 90.3769 59.6544 89.6123 59.6544 89.0007C59.6544 88.3891 59.6544 86.86 59.6544 84.7194C52.7737 86.2484 51.2446 81.3554 51.2446 81.3554C50.1743 78.4503 48.4924 77.6857 48.4924 77.6857C46.1988 76.1567 48.6453 76.1567 48.6453 76.1567C51.0917 76.3096 52.4679 78.7561 52.4679 78.7561C54.7615 82.5787 58.2783 81.5084 59.6544 80.8967C59.8073 79.2148 60.5719 78.1444 61.1835 77.5328C55.6789 76.9212 49.8685 74.7805 49.8685 65.1475C49.8685 62.3952 50.7859 60.2545 52.4679 58.4197C52.315 57.961 51.3976 55.3616 52.7737 51.9977C52.7737 51.9977 54.9144 51.386 59.6544 54.597C61.6422 53.9854 63.7829 53.8325 65.9235 53.8325C68.0642 53.8325 70.2049 54.1383 72.1927 54.597C76.9327 51.386 79.0734 51.9977 79.0734 51.9977C80.4495 55.3616 79.5321 57.961 79.3792 58.5726C80.9083 60.2545 81.9786 62.5481 81.9786 65.3004C81.9786 74.9334 76.1682 76.9212 70.6636 77.5328C71.581 78.2973 72.3456 79.8264 72.3456 82.12C72.3456 85.4839 72.3456 88.0833 72.3456 89.0007C72.3456 89.6123 72.8043 90.3769 74.0275 90.2239C83.9664 86.86 91 77.5328 91 66.5236C90.8471 52.7622 79.685 41.6001 65.9235 41.6001Z" fill="white"/>
<defs>
<filter id="filter0_d_23_221" x="0" y="0" width="140" height="140" filterUnits="userSpaceOnUse" color-interpolation-filters="sRGB">
<feFlood flood-opacity="0" result="BackgroundImageFix"/>
<feColorMatrix in="SourceAlpha" type="matrix" values="0 0 0 0 0 0 0 0 0 0 0 0 0 0 0 0 0 0 127 0" result="hardAlpha"/>
<feOffset dx="4" dy="4"/>
<feGaussianBlur stdDeviation="10"/>
<feComposite in2="hardAlpha" operator="out"/>
<feColorMatrix type="matrix" values="0 0 0 0 0 0 0 0 0 0 0 0 0 0 0 0 0 0 0.25 0"/>
<feBlend mode="normal" in2="BackgroundImageFix" result="effect1_dropShadow_23_221"/>
<feBlend mode="normal" in="SourceGraphic" in2="effect1_dropShadow_23_221" result="shape"/>
</filter>
</defs>
</svg>
