<svg width="140" height="140" viewBox="0 0 140 140" fill="none" xmlns="http://www.w3.org/2000/svg">
<g filter="url(#filter0_d_23_224)">
<path d="M16 66C16 93.6142 38.3858 116 66 116C93.6142 116 116 93.6142 116 66C116 38.3858 93.6142 16 66 16C38.3858 16 16 38.3858 16 66Z" fill="#2867B2"/>
</g>
<path d="M52.25 91H41.625V57.5625H52.25V91ZM46.9375 52.875C43.5 52.875 41 50.375 41 46.9375C41 43.5 43.8125 41 46.9375 41C50.375 41 52.875 43.5 52.875 46.9375C52.875 50.375 50.375 52.875 46.9375 52.875ZM91 91H80.375V72.875C80.375 67.5625 78.1875 66 75.0625 66C71.9375 66 68.8125 68.5 68.8125 73.1875V91H58.1875V57.5625H68.1875V62.25C69.125 60.0625 72.875 56.625 78.1875 56.625C84.125 56.625 90.375 60.0625 90.375 70.375V91H91Z" fill="white"/>
<defs>
<filter id="filter0_d_23_224" x="0" y="0" width="140" height="140" filterUnits="userSpaceOnUse" color-interpolation-filters="sRGB">
<feFlood flood-opacity="0" result="BackgroundImageFix"/>
<feColorMatrix in="SourceAlpha" type="matrix" values="0 0 0 0 0 0 0 0 0 0 0 0 0 0 0 0 0 0 127 0" result="hardAlpha"/>
<feOffset dx="4" dy="4"/>
<feGaussianBlur stdDeviation="10"/>
<feComposite in2="hardAlpha" operator="out"/>
<feColorMatrix type="matrix" values="0 0 0 0 0 0 0 0 0 0 0 0 0 0 0 0 0 0 0.25 0"/>
<feBlend mode="normal" in2="BackgroundImageFix" result="effect1_dropShadow_23_224"/>
<feBlend mode="normal" in="SourceGraphic" in2="effect1_dropShadow_23_224" result="shape"/>
</filter>
</defs>
</svg>
