<svg width="140" height="140" viewBox="0 0 140 140" fill="none" xmlns="http://www.w3.org/2000/svg">
<g filter="url(#filter0_d_23_218)">
<path d="M16 66C16 93.6142 38.3858 116 66 116C93.6142 116 116 93.6142 116 66C116 38.3858 93.6142 16 66 16C38.3858 16 16 38.3858 16 66Z" fill="#25D366"/>
</g>
<path fill-rule="evenodd" clip-rule="evenodd" d="M83.5 48.1875C78.8125 43.5 72.5625 41 66 41C52.25 41 41 52.25 41 66C41 70.375 42.25 74.75 44.4375 78.5L41 91L54.125 87.5625C57.875 89.4375 61.9375 90.6875 66 90.6875C79.75 90.6875 91 79.4375 91 65.6875C91 59.125 88.1875 52.875 83.5 48.1875ZM66 86.625C62.25 86.625 58.5 85.6875 55.375 83.8125L54.75 83.5L46.9375 85.6875L49.125 78.1875L48.5 77.25C46.3125 73.8125 45.375 70.0625 45.375 66.3125C45.375 55.0625 54.75 45.6875 66 45.6875C71.625 45.6875 76.625 47.875 80.6875 51.625C84.75 55.6875 86.625 60.6875 86.625 66.3125C86.625 77.25 77.5625 86.625 66 86.625ZM77.25 71C76.625 70.6875 73.5 69.125 72.875 69.125C72.25 68.8125 71.9375 68.8125 71.625 69.4375C71.3125 70.0625 70.0625 71.3125 69.75 71.9375C69.4375 72.25 69.125 72.25 68.5 72.25C67.875 71.9375 66 71.3125 63.5 69.125C61.625 67.5625 60.375 65.375 60.0625 64.75C59.75 64.125 60.0625 63.8125 60.375 63.5C60.6875 63.1875 61 62.875 61.3125 62.5625C61.625 62.25 61.625 61.9375 61.9375 61.625C62.25 61.3125 61.9375 61 61.9375 60.6875C61.9375 60.375 60.6875 57.25 60.0625 56C59.75 55.0625 59.125 55.0625 58.8125 55.0625C58.5 55.0625 58.1875 55.0625 57.5625 55.0625C57.25 55.0625 56.625 55.0625 56 55.6875C55.375 56.3125 53.8125 57.875 53.8125 61C53.8125 64.125 56 66.9375 56.3125 67.5625C56.625 67.875 60.6875 74.4375 66.9375 76.9375C72.25 79.125 73.1875 78.5 74.4375 78.5C75.6875 78.5 78.1875 76.9375 78.5 75.6875C79.125 74.125 79.125 72.875 78.8125 72.875C78.5 71.3125 77.875 71.3125 77.25 71Z" fill="white"/>
<defs>
<filter id="filter0_d_23_218" x="0" y="0" width="140" height="140" filterUnits="userSpaceOnUse" color-interpolation-filters="sRGB">
<feFlood flood-opacity="0" result="BackgroundImageFix"/>
<feColorMatrix in="SourceAlpha" type="matrix" values="0 0 0 0 0 0 0 0 0 0 0 0 0 0 0 0 0 0 127 0" result="hardAlpha"/>
<feOffset dx="4" dy="4"/>
<feGaussianBlur stdDeviation="10"/>
<feComposite in2="hardAlpha" operator="out"/>
<feColorMatrix type="matrix" values="0 0 0 0 0 0 0 0 0 0 0 0 0 0 0 0 0 0 0.25 0"/>
<feBlend mode="normal" in2="BackgroundImageFix" result="effect1_dropShadow_23_218"/>
<feBlend mode="normal" in="SourceGraphic" in2="effect1_dropShadow_23_218" result="shape"/>
</filter>
</defs>
</svg>
