<svg width="140" height="140" viewBox="0 0 140 140" fill="none" xmlns="http://www.w3.org/2000/svg">
<g filter="url(#filter0_d_23_233)">
<path d="M116 66C116 38.3858 93.6142 16 66 16C38.3858 16 16 38.3858 16 66C16 93.6142 38.3858 116 66 116C93.6142 116 116 93.6142 116 66Z" fill="white"/>
</g>
<path fill-rule="evenodd" clip-rule="evenodd" d="M90.4685 66.5682C90.4685 64.7955 90.3094 63.091 90.014 61.4546H66.4684V71.1251H79.923C79.3435 74.2501 77.5821 76.8978 74.9344 78.6705V84.9433H83.0139C87.7412 80.591 90.4685 74.1819 90.4685 66.5682Z" fill="#4285F4"/>
<path fill-rule="evenodd" clip-rule="evenodd" d="M66.4675 91C73.2175 91 78.8766 88.7614 83.013 84.9432L74.9334 78.6705C72.6948 80.1705 69.8311 81.0568 66.4675 81.0568C59.9561 81.0568 54.4447 76.6591 52.4788 70.75H44.1265V77.2273C48.2402 85.3978 56.6947 91 66.4675 91Z" fill="#34A853"/>
<path fill-rule="evenodd" clip-rule="evenodd" d="M52.4798 70.7498C51.9798 69.2498 51.6957 67.6475 51.6957 65.9998C51.6957 64.352 51.9798 62.7498 52.4798 61.2497V54.7725H44.1275C42.4344 58.1475 41.4684 61.9657 41.4684 65.9998C41.4684 70.0339 42.4344 73.852 44.1275 77.2271L52.4798 70.7498Z" fill="#FBBC05"/>
<path fill-rule="evenodd" clip-rule="evenodd" d="M66.4675 50.9432C70.1379 50.9432 73.4334 52.2046 76.0243 54.6818L83.1948 47.5114C78.8652 43.4773 73.2061 41 66.4675 41C56.6947 41 48.2402 46.6023 44.1265 54.7728L52.4788 61.25C54.4447 55.3409 59.9561 50.9432 66.4675 50.9432Z" fill="#EA4335"/>
<defs>
<filter id="filter0_d_23_233" x="0" y="0" width="140" height="140" filterUnits="userSpaceOnUse" color-interpolation-filters="sRGB">
<feFlood flood-opacity="0" result="BackgroundImageFix"/>
<feColorMatrix in="SourceAlpha" type="matrix" values="0 0 0 0 0 0 0 0 0 0 0 0 0 0 0 0 0 0 127 0" result="hardAlpha"/>
<feOffset dx="4" dy="4"/>
<feGaussianBlur stdDeviation="10"/>
<feComposite in2="hardAlpha" operator="out"/>
<feColorMatrix type="matrix" values="0 0 0 0 0 0 0 0 0 0 0 0 0 0 0 0 0 0 0.25 0"/>
<feBlend mode="normal" in2="BackgroundImageFix" result="effect1_dropShadow_23_233"/>
<feBlend mode="normal" in="SourceGraphic" in2="effect1_dropShadow_23_233" result="shape"/>
</filter>
</defs>
</svg>
