<svg width="140" height="140" viewBox="0 0 140 140" fill="none" xmlns="http://www.w3.org/2000/svg">
<g filter="url(#filter0_d_23_215)">
<path d="M16 66C16 93.6142 38.3858 116 66 116C93.6142 116 116 93.6142 116 66C116 38.3858 93.6142 16 66 16C38.3858 16 16 38.3858 16 66Z" fill="#0088CC"/>
</g>
<path d="M41.3122 65.0884C54.734 59.2408 63.6839 55.3857 68.162 53.5231C80.948 48.2049 83.6048 47.2811 85.3365 47.2503C85.7173 47.2439 86.5689 47.3383 87.1205 47.7859C87.5863 48.1639 87.7145 48.6744 87.7758 49.0327C87.8371 49.3911 87.9135 50.2074 87.8528 50.8452C87.1599 58.1253 84.1618 75.7922 82.6366 83.946C81.9912 87.3962 80.7204 88.553 79.4902 88.6662C76.8165 88.9123 74.7862 86.8993 72.1967 85.2018C68.1445 82.5455 65.8553 80.892 61.922 78.3C57.3763 75.3045 60.3231 73.6581 62.9136 70.9675C63.5916 70.2633 75.3718 59.5483 75.5998 58.5763C75.6283 58.4547 75.6548 58.0016 75.3856 57.7623C75.1164 57.523 74.719 57.6049 74.4323 57.6699C74.0259 57.7622 67.5525 62.0408 55.0122 70.5059C53.1747 71.7677 51.5104 72.3824 50.0192 72.3502C48.3754 72.3147 45.2132 71.4207 42.8624 70.6566C39.9791 69.7194 37.6876 69.2238 37.8871 67.6321C37.991 66.803 39.1328 65.9551 41.3122 65.0884Z" fill="white"/>
<defs>
<filter id="filter0_d_23_215" x="0" y="0" width="140" height="140" filterUnits="userSpaceOnUse" color-interpolation-filters="sRGB">
<feFlood flood-opacity="0" result="BackgroundImageFix"/>
<feColorMatrix in="SourceAlpha" type="matrix" values="0 0 0 0 0 0 0 0 0 0 0 0 0 0 0 0 0 0 127 0" result="hardAlpha"/>
<feOffset dx="4" dy="4"/>
<feGaussianBlur stdDeviation="10"/>
<feComposite in2="hardAlpha" operator="out"/>
<feColorMatrix type="matrix" values="0 0 0 0 0 0 0 0 0 0 0 0 0 0 0 0 0 0 0.25 0"/>
<feBlend mode="normal" in2="BackgroundImageFix" result="effect1_dropShadow_23_215"/>
<feBlend mode="normal" in="SourceGraphic" in2="effect1_dropShadow_23_215" result="shape"/>
</filter>
</defs>
</svg>
